<?xml version="1.0" encoding="UTF-8"?>
<!--Generator: Apple Native CoreSVG 232.5-->
<!DOCTYPE svg
PUBLIC "-//W3C//DTD SVG 1.1//EN"
       "http://www.w3.org/Graphics/SVG/1.1/DTD/svg11.dtd">
<svg version="1.1" xmlns="http://www.w3.org/2000/svg" xmlns:xlink="http://www.w3.org/1999/xlink" width="19.9198" height="19.9218">
 <g>
  <rect height="19.9218" opacity="0" width="19.9198" x="0" y="0"/>
  <path d="M9.95468 19.9094C15.3993 19.9094 19.9197 15.3993 19.9197 9.95469C19.9197 4.51006 15.389 0 9.94433 0C4.50794 0-8.88178e-16 4.51006-8.88178e-16 9.95469C-8.88178e-16 15.3993 4.51831 19.9094 9.95468 19.9094ZM9.95468 18.2559C5.3575 18.2559 1.6721 14.5622 1.6721 9.95469C1.6721 5.34716 5.34716 1.6535 9.94433 1.6535C14.5519 1.6535 18.2559 5.34716 18.2559 9.95469C18.2559 14.5622 14.5622 18.2559 9.95468 18.2559Z" fill="#ffffff" fill-opacity="0.85"/>
  <path d="M6.61857 14.0804C6.84248 14.0804 7.03723 14.0037 7.1762 13.8461L9.94433 11.0655L12.7228 13.8461C12.8722 13.9954 13.0587 14.0804 13.2887 14.0804C13.7198 14.0804 14.07 13.7322 14.07 13.295C14.07 13.0732 13.983 12.8971 13.8379 12.7395L11.0634 9.96714L13.8482 7.1741C14.0037 7.01652 14.0804 6.84035 14.0804 6.63103C14.0804 6.19169 13.7302 5.85393 13.299 5.85393C13.0897 5.85393 12.9239 5.92026 12.7539 6.08817L9.94433 8.877L7.16586 6.09852C7.01652 5.93884 6.84248 5.86427 6.61857 5.86427C6.18957 5.86427 5.83935 6.20203 5.83935 6.63927C5.83935 6.85072 5.92427 7.03722 6.0715 7.18444L8.84385 9.96714L6.0715 12.7498C5.92427 12.8971 5.83935 13.0836 5.83935 13.295C5.83935 13.7322 6.18957 14.0804 6.61857 14.0804Z" fill="#ffffff" fill-opacity="0.85"/>
 </g>
</svg>
